<?xml version="1.0" encoding="utf-8"?>
<!-- Generator: Adobe Illustrator 24.3.0, SVG Export Plug-In . SVG Version: 6.00 Build 0)  -->
<svg version="1.1" id="Layer_1" xmlns="http://www.w3.org/2000/svg" xmlns:xlink="http://www.w3.org/1999/xlink" x="0px" y="0px"
	 viewBox="0 0 32 32" style="enable-background:new 0 0 32 32;" xml:space="preserve">
<style type="text/css">
	.st0{fill:#723E98;}
</style>
<g>
	<path class="st0" d="M4.29,17.79c-0.51-0.18-0.94-0.48-1.13-1.04S3.02,15.62,3.15,15c0.06-0.28,0.19-0.66,0.3-0.98
		s0.26-0.72,0.37-1.06c0.11-0.34,0.24-0.71,0.36-1.04c0.12-0.33,0.24-0.67,0.37-0.99c0.27-0.71,0.49-1.47,0.74-2.16
		s0.5-1.45,0.76-2.09C6.3,6.03,6.65,5.31,7.01,4.84c0.35-0.47,0.64-0.61,1.09-0.8c0.45-0.18,0.97-0.16,1.41-0.13
		c0.44,0.03,0.76,0.21,1.03,0.49s0.31,0.66,0.29,0.98s-0.07,0.45-0.12,0.75s-0.14,0.65-0.21,0.95c-0.07,0.3-0.16,0.67-0.23,0.96
		c-0.07,0.28-0.19,0.62-0.24,0.85C9.97,9.12,9.92,9.28,9.91,9.45C9.9,9.61,9.92,9.69,10,9.8c0.09,0.11,0.19,0.14,0.35,0.15
		c0.16,0.01,0.26,0,0.48-0.09c0.22-0.09,0.34-0.15,0.64-0.35c0.68-0.46,1.36-0.97,2.07-1.6s1.81-1.74,2.41-2.45s1.29-1.42,1.82-1.88
		s0.95-0.51,1.4-0.57c0.45-0.06,0.58,0.04,0.86,0.16c0.28,0.12,0.35,0.34,0.46,0.57c0.11,0.23,0.14,0.51,0.13,0.74
		c0,0.23-0.04,0.33-0.13,0.55c-0.09,0.22-0.19,0.36-0.36,0.6s-0.31,0.34-0.58,0.67c-0.26,0.34-0.57,0.76-0.96,1.22
		c-0.4,0.46-1.07,1.21-1.58,1.69c-0.5,0.48-1.26,1.1-1.77,1.46s-1.12,0.7-1.52,0.91c-0.4,0.21-0.63,0.28-0.86,0.42
		c-0.24,0.14-0.27,0.16-0.35,0.33c-0.07,0.16-0.04,0.19-0.01,0.37c0.03,0.18,0.09,0.32,0.18,0.56c0.09,0.23,0.21,0.46,0.32,0.78
		c0.11,0.32,0.25,0.79,0.37,1.19c0.11,0.4,0.19,1.02,0.25,1.43c0.07,0.41,0.1,1.02,0.13,1.33c0.04,0.31,0.04,0.74,0.05,0.86
		c0.03,0.74,0.12,1.7,0.11,2.26s-0.07,0.8-0.23,1.16s-0.31,0.48-0.58,0.63s-0.45,0.16-0.76,0.11s-0.53-0.09-0.86-0.33
		c-0.33-0.24-0.57-0.49-0.87-0.98s-0.45-1.49-0.49-2.15c-0.05-0.66-0.13-1.61-0.18-2.18s-0.22-0.99-0.3-1.4
		c-0.08-0.41-0.12-0.66-0.21-0.97s-0.18-0.52-0.25-0.77s-0.11-0.53-0.17-0.71c-0.05-0.19-0.08-0.28-0.15-0.39
		c-0.07-0.11-0.09-0.12-0.19-0.16c-0.1-0.04-0.18,0-0.27,0.08c-0.09,0.09-0.16,0.22-0.21,0.35c-0.05,0.13-0.08,0.18-0.14,0.35
		s-0.17,0.41-0.26,0.61c-0.09,0.2-0.23,0.5-0.32,0.71c-0.09,0.2-0.22,0.5-0.3,0.66c-0.08,0.15-0.2,0.38-0.23,0.45
		c-0.32,0.59-0.73,1.29-1.25,1.6C5.16,18.05,4.8,17.98,4.29,17.79z"/>
</g>
<g>
	<path class="st0" d="M17.49,26.87c-0.91-0.48-1.58-0.86-1.99-1.88c-0.41-1.02-0.48-2.2-0.49-3.37c-0.01-0.32,0-0.84,0.01-1.26
		c0-0.42,0.01-1,0.01-1.46c0-0.46,0-1.05,0-1.5c0-0.45,0.01-1.01,0.01-1.37c0-0.37,0.02-0.83,0.03-1.06c0.02-0.92,0.2-1.9,0.52-2.61
		c0.32-0.71,0.92-0.94,1.43-1.05c0.51-0.12,0.71-0.05,1.05,0.11s0.4,0.39,0.54,0.71c0.14,0.32,0.21,0.8,0.25,1.13
		c0.05,0.33,0.06,0.54,0.09,0.87c0.03,0.32,0.06,0.65,0.09,1s0.06,0.74,0.08,1.11c0.02,0.36,0.05,0.75,0.08,1.11s0.06,0.71,0.1,1.06
		c0.04,0.36,0.07,0.59,0.12,0.98c0.05,0.4,0.15,1.05,0.25,1.45s0.17,0.65,0.45,0.95c0.28,0.29,0.46,0.36,0.98,0.39
		s1.19-0.07,1.86-0.26s1.97-0.52,2.64-0.73s1.46-0.42,1.97-0.48c0.5-0.06,0.62-0.01,0.91,0.08c0.28,0.09,0.29,0.21,0.41,0.37
		c0.12,0.16,0.11,0.27,0.11,0.5c0.01,0.22-0.05,0.45-0.18,0.73c-0.13,0.28-0.31,0.74-0.56,1.03c-0.25,0.29-0.19,0.27-0.65,0.58
		c-0.45,0.3-0.96,0.61-1.71,1.04s-2.34,1.27-3.23,1.7s-1.95,1.04-2.85,0.78c-0.38-0.11-0.52-0.1-0.82-0.17
		c-0.3-0.07-0.56-0.14-0.81-0.22C17.94,27.02,17.68,26.97,17.49,26.87z"/>
</g>
</svg>
